<svg width="72" height="72" viewBox="0 0 72 72" fill="none" xmlns="http://www.w3.org/2000/svg">
<path fill-rule="evenodd" clip-rule="evenodd" d="M50.7038 37.98L37.9777 50.7151C37.098 51.5926 35.6737 51.5926 34.7962 50.7151C33.9165 49.8376 33.9165 48.3975 34.7962 47.52L44.0685 38.25H20.25C19.0058 38.25 18 37.2375 18 36C18 34.7625 19.0058 33.75 20.25 33.75H44.0685L34.7962 24.48C33.9165 23.6025 33.9165 22.1849 34.7962 21.2849C35.6737 20.4074 37.098 20.4074 37.9777 21.2849L50.7038 34.02C51.2438 34.56 51.4125 35.3025 51.2888 36C51.4125 36.6975 51.2438 37.44 50.7038 37.98ZM36 0C16.1168 0 0 16.11 0 36C0 55.89 16.1168 72 36 72C55.8833 72 72 55.89 72 36C72 16.11 55.8833 0 36 0Z" fill="white"/>
</svg>
