<svg width="74" height="72" viewBox="0 0 74 72" fill="none" xmlns="http://www.w3.org/2000/svg">
<path fill-rule="evenodd" clip-rule="evenodd" d="M53.1875 38.25H28.7074L38.2395 47.52C39.1414 48.3975 39.1414 49.8376 38.2395 50.7151C37.3353 51.5926 35.8715 51.5926 34.9673 50.7151L21.8855 37.98C21.3328 37.44 21.1593 36.6975 21.2865 36C21.1593 35.3025 21.3328 34.56 21.8855 34.02L34.9673 21.2849C35.8715 20.4074 37.3353 20.4074 38.2395 21.2849C39.1414 22.1849 39.1414 23.6025 38.2395 24.48L28.7074 33.75H53.1875C54.464 33.75 55.5 34.7625 55.5 36C55.5 37.2375 54.464 38.25 53.1875 38.25ZM37 0C16.5667 0 0 16.11 0 36C0 55.89 16.5667 72 37 72C57.4333 72 74 55.89 74 36C74 16.11 57.4333 0 37 0Z" fill="white"/>
</svg>
