<svg width="67" height="105" viewBox="0 0 67 105" fill="none" xmlns="http://www.w3.org/2000/svg">
<path d="M1 1H32C50.7777 1 66 16.2223 66 35V70C66 88.7777 50.7777 104 32 104H1V1Z" fill="black" stroke="#0FAB77" stroke-width="2"/>
<mask id="path-2-inside-1_10_511" fill="white">
<path d="M13 33V65.381H20.619V73L36.8095 65.381H53V33H13ZM26.3333 52.0476H20.619V46.3333H26.3333V52.0476ZM35.8571 52.0476H30.1429V46.3333H35.8571V52.0476ZM45.381 52.0476H39.6667V46.3333H45.381V52.0476Z"/>
</mask>
<path d="M13 33V65.381H20.619V73L36.8095 65.381H53V33H13ZM26.3333 52.0476H20.619V46.3333H26.3333V52.0476ZM35.8571 52.0476H30.1429V46.3333H35.8571V52.0476ZM45.381 52.0476H39.6667V46.3333H45.381V52.0476Z" fill="white"/>
<path d="M13 33V-0.333332H-20.3333V33H13ZM13 65.381H-20.3333V98.7143H13V65.381ZM20.619 65.381H53.9524V32.0476H20.619V65.381ZM20.619 73H-12.7143V125.526L34.8123 103.161L20.619 73ZM36.8095 65.381V32.0476H29.3583L22.6163 35.2203L36.8095 65.381ZM53 65.381V98.7143H86.3333V65.381H53ZM53 33H86.3333V-0.333332H53V33ZM26.3333 52.0476V85.381H59.6667V52.0476H26.3333ZM20.619 52.0476H-12.7143V85.381H20.619V52.0476ZM20.619 46.3333V13H-12.7143V46.3333H20.619ZM26.3333 46.3333H59.6667V13H26.3333V46.3333ZM35.8571 52.0476V85.381H69.1905V52.0476H35.8571ZM30.1429 52.0476H-3.19047V85.381H30.1429V52.0476ZM30.1429 46.3333V13H-3.19047V46.3333H30.1429ZM35.8571 46.3333H69.1905V13H35.8571V46.3333ZM45.381 52.0476V85.381H78.7143V52.0476H45.381ZM39.6667 52.0476H6.33333V85.381H39.6667V52.0476ZM39.6667 46.3333V13H6.33333V46.3333H39.6667ZM45.381 46.3333H78.7143V13H45.381V46.3333ZM-20.3333 33V65.381H46.3333V33H-20.3333ZM13 98.7143H20.619V32.0476H13V98.7143ZM-12.7143 65.381V73H53.9524V65.381H-12.7143ZM34.8123 103.161L51.0028 95.5416L22.6163 35.2203L6.42581 42.8394L34.8123 103.161ZM36.8095 98.7143H53V32.0476H36.8095V98.7143ZM86.3333 65.381V33H19.6667V65.381H86.3333ZM53 -0.333332H13V66.3333H53V-0.333332ZM26.3333 18.7143H20.619V85.381H26.3333V18.7143ZM53.9524 52.0476V46.3333H-12.7143V52.0476H53.9524ZM20.619 79.6667H26.3333V13H20.619V79.6667ZM-7 46.3333V52.0476H59.6667V46.3333H-7ZM35.8571 18.7143H30.1429V85.381H35.8571V18.7143ZM63.4762 52.0476V46.3333H-3.19047V52.0476H63.4762ZM30.1429 79.6667H35.8571V13H30.1429V79.6667ZM2.52381 46.3333V52.0476H69.1905V46.3333H2.52381ZM45.381 18.7143H39.6667V85.381H45.381V18.7143ZM73 52.0476V46.3333H6.33333V52.0476H73ZM39.6667 79.6667H45.381V13H39.6667V79.6667ZM12.0476 46.3333V52.0476H78.7143V46.3333H12.0476Z" fill="white" mask="url(#path-2-inside-1_10_511)"/>
</svg>
