<svg width="122" height="122" viewBox="0 0 122 122" fill="none" xmlns="http://www.w3.org/2000/svg">
<path d="M65.1937 61.0001C65.1937 51.1714 72.9636 43.2109 82.5406 43.2109C92.1252 43.2109 99.8875 51.1638 99.8875 61.0001C99.8875 70.8287 92.1252 78.7892 82.5406 78.7892C72.9712 78.7892 65.1937 70.8363 65.1937 61.0001Z" fill="#1ABCFE"/>
<path d="M30.5 96.5858C30.5 86.7572 38.2699 78.7891 47.8469 78.7891H65.1938V96.5858C65.1938 106.407 57.4239 114.375 47.8469 114.375C38.2699 114.375 30.5 106.407 30.5 96.5858Z" fill="#0ACF83"/>
<path d="M65.1937 7.625V43.2109H82.5406C92.1252 43.2109 99.8875 35.2428 99.8875 25.4141C99.8875 15.5931 92.1252 7.625 82.5406 7.625H65.1937Z" fill="#FF7262"/>
<path d="M30.5 25.4141C30.5 35.2428 38.2699 43.2109 47.8469 43.2109H65.1938V7.625H47.8469C38.2699 7.625 30.5 15.5931 30.5 25.4141Z" fill="#F24E1E"/>
<path d="M30.5 61.0001C30.5 70.8287 38.2699 78.7892 47.8469 78.7892H65.1938V43.2109H47.8469C38.2699 43.2109 30.5 51.1638 30.5 61.0001Z" fill="#A259FF"/>
</svg>
