<svg width="70" height="70" viewBox="0 0 70 70" fill="none" xmlns="http://www.w3.org/2000/svg">
<path d="M4.375 26.1529C4.375 18.5298 4.375 14.7184 5.85852 11.8068C7.16347 9.24571 9.24571 7.16347 11.8068 5.85852C14.7184 4.375 18.5298 4.375 26.1529 4.375H43.8471C51.4701 4.375 55.2816 4.375 58.1932 5.85852C60.7543 7.16347 62.8366 9.24571 64.1414 11.8068C65.625 14.7184 65.625 18.5298 65.625 26.1529V43.8471C65.625 51.4701 65.625 55.2816 64.1414 58.1932C62.8366 60.7543 60.7543 62.8366 58.1932 64.1414C55.2816 65.625 51.4701 65.625 43.8471 65.625H26.1529C18.5298 65.625 14.7184 65.625 11.8068 64.1414C9.24571 62.8366 7.16347 60.7543 5.85852 58.1932C4.375 55.2816 4.375 51.4701 4.375 43.8471V26.1529Z" fill="white"/>
<path d="M48.2377 18.644L35.1409 28.8649L21.7447 18.644V18.6467L21.7609 18.6605V32.9726L34.9899 43.4144L48.2377 33.3758V18.644Z" fill="#EA4335"/>
<path d="M51.6755 16.1577L48.2361 18.6439V33.3758L59.0588 25.0666V20.061C59.0588 20.061 57.7452 12.9119 51.6755 16.1577Z" fill="#FBBC05"/>
<path d="M48.2361 33.3758V52.4834H56.5311C56.5311 52.4834 58.8916 52.2403 59.0614 49.5497V25.0666L48.2361 33.3758Z" fill="#34A853"/>
<path d="M21.7615 52.5002V32.9726L21.7447 32.9588L21.7615 52.5002Z" fill="#C5221F"/>
<path d="M21.7441 18.6463L18.3235 16.174C12.2539 12.9282 10.9375 20.0745 10.9375 20.0745V25.0799L21.7441 32.9584V18.6463Z" fill="#C5221F"/>
<path d="M21.7447 18.6472V32.9593L21.7615 32.9731V18.661L21.7447 18.6472Z" fill="#C5221F"/>
<path d="M10.9375 25.0836V49.5668C11.1048 52.2602 13.4678 52.5007 13.4678 52.5007H21.7629L21.7441 32.9593L10.9375 25.0836Z" fill="#4285F4"/>
</svg>
