<svg width="62" height="62" viewBox="0 0 62 62" fill="none" xmlns="http://www.w3.org/2000/svg">
<g clip-path="url(#clip0_1_56)">
<path d="M57.1562 0H4.84375C2.16758 0 0 2.16758 0 4.84375V57.1562C0 59.8324 2.16758 62 4.84375 62H57.1562C59.8324 62 62 59.8324 62 57.1562V4.84375C62 2.16758 59.8324 0 57.1562 0ZM22.3297 43.9691H16.2871V24.6305H22.3297V43.9691ZM19.1449 22.2086H19.0965C16.9047 22.2086 15.4879 20.7313 15.4879 18.8543C15.4879 16.941 16.9531 15.5 19.1812 15.5C21.4094 15.5 22.7777 16.941 22.8262 18.8543C22.8383 20.7191 21.4215 22.2086 19.1449 22.2086ZM46.5 43.9691H39.6461V33.9668C39.6461 31.3512 38.5805 29.559 36.2191 29.559C34.4148 29.559 33.4098 30.7699 32.9496 31.9324C32.7801 32.3441 32.8043 32.9254 32.8043 33.5187V43.9691H26.0109C26.0109 43.9691 26.0957 26.241 26.0109 24.6305H32.8043V27.6699C33.2039 26.3379 35.3715 24.4488 38.8348 24.4488C43.1336 24.4488 46.5 27.234 46.5 33.216V43.9691Z" fill="white"/>
</g>
<defs>
<clipPath id="clip0_1_56">
<rect width="62" height="62" fill="white"/>
</clipPath>
</defs>
</svg>
