<svg width="82" height="120" viewBox="0 0 82 120" fill="none" xmlns="http://www.w3.org/2000/svg">
<path fill-rule="evenodd" clip-rule="evenodd" d="M72.1731 4.10798C72.6076 4.50085 72.7119 5.2495 72.4276 5.93455L68.0232 16.5489L75.021 19.4943C75.4387 19.6701 75.7039 20.1227 75.7165 20.6811C75.7292 21.2395 75.4872 21.8182 75.0822 22.1987L59.3676 36.9585C58.8565 37.4385 58.1999 37.499 57.7654 37.1061C57.331 36.7132 57.2267 35.9645 57.5109 35.2796L61.9153 24.6652L54.9175 21.7198C54.4999 21.5441 54.2347 21.0913 54.222 20.533C54.2094 19.9746 54.4513 19.3958 54.8564 19.0154L70.5709 4.25558C71.082 3.77562 71.7387 3.71512 72.1731 4.10798ZM58.2065 19.5418L64.34 22.1234C64.9842 22.3946 65.2247 23.2932 64.8771 24.1307L62.1709 30.6525L71.732 21.6724L65.5985 19.0908C64.9543 18.8196 64.7138 17.921 65.0614 17.0835L67.7676 10.5616L58.2065 19.5418Z" fill="white"/>
<path d="M35.1368 79.7766L33.5281 62.555C33.3342 60.4787 32.2134 58.6036 30.4823 57.4588L24.0989 53.2381M24.0989 53.2381L27.1141 30.5401M24.0989 53.2381L18.6893 50.3026M27.1141 30.5401L20.1673 29.4743M27.1141 30.5401L35.0891 41.053C36.2288 42.5556 37.9336 43.5182 39.801 43.714L45.5184 44.3125M18.6893 50.3026L20.1673 29.4743M18.6893 50.3026L14.7754 81.7058M20.1673 29.4743L10.807 35.3512C8.61575 36.727 7.38439 39.2315 7.62625 41.8207L8.18938 47.8494M30.9274 16.3866C31.1037 18.2742 29.7273 19.9484 27.8531 20.1259C25.9788 20.3035 24.3166 18.9173 24.1403 17.0297C23.964 15.1421 25.3403 13.4679 27.2146 13.2904C29.0888 13.1128 30.7511 14.499 30.9274 16.3866Z" stroke="white" stroke-width="7" stroke-linecap="round" stroke-linejoin="round"/>
<path d="M74.7452 65.7439L62.4052 62.3654C61.8658 62.2406 61.3043 62.25 60.7693 62.3927C60.2343 62.5355 59.7419 62.8073 59.3346 63.1846C58.9273 63.562 58.6173 64.0336 58.4315 64.5586C58.2457 65.0836 58.1896 65.6464 58.2681 66.1981L59.3433 69.6498L3.50586 88.6219C3.07874 88.7644 2.68388 88.9908 2.34405 89.2878C2.00422 89.5849 1.72616 89.9467 1.52589 90.3525C1.32562 90.7584 1.20712 91.2001 1.17722 91.6523C1.14731 92.1045 1.20661 92.5581 1.35167 92.9871C1.49324 93.4173 1.71796 93.815 2.0129 94.1572C2.30784 94.4995 2.66714 94.7795 3.07008 94.9812C3.47303 95.1829 3.91163 95.3023 4.36061 95.3324C4.80958 95.3625 5.26003 95.3028 5.68597 95.1567L61.5695 76.3227L62.7363 79.8203C63.0046 80.3078 63.3866 80.7223 63.8495 81.0278C64.3124 81.3333 64.8422 81.5207 65.3932 81.5738C65.9441 81.6269 66.4996 81.5441 67.0116 81.3325C67.5236 81.1209 67.9768 80.7869 68.332 80.3594L76.1884 70.0698C76.4896 69.722 76.6953 69.3009 76.7848 68.8483C76.8744 68.3957 76.8447 67.9274 76.6987 67.4899C76.5528 67.0525 76.2957 66.6611 75.9529 66.3548C75.6102 66.0485 75.1938 65.8378 74.7452 65.7439Z" fill="white"/>
</svg>
