<svg width="66" height="66" viewBox="0 0 66 66" fill="none" xmlns="http://www.w3.org/2000/svg">
<rect width="66" height="66" rx="6" fill="white"/>
<path d="M33.5 38.75V43.75M21.3125 27.572C22.4616 27.5 23.8782 27.5 25.7 27.5H41.3C43.1218 27.5 44.5385 27.5 45.6875 27.572M21.3125 27.572C19.8785 27.6618 18.8611 27.8637 17.9927 28.3175C16.6168 29.0365 15.4981 30.1837 14.797 31.595C14 33.1995 14 35.2995 14 39.5V43C14 47.2005 14 49.3005 14.797 50.905C15.4981 52.3163 16.6168 53.4635 17.9927 54.1825C19.5569 55 21.6046 55 25.7 55H41.3C45.3955 55 47.443 55 49.0074 54.1825C50.3833 53.4635 51.5019 52.3163 52.2029 50.905C53 49.3005 53 47.2005 53 43V39.5C53 35.2995 53 33.1995 52.2029 31.595C51.5019 30.1837 50.3833 29.0365 49.0074 28.3175C48.1389 27.8637 47.1215 27.6618 45.6875 27.572M21.3125 27.572V22.5C21.3125 15.5965 26.769 10 33.5 10C40.2309 10 45.6875 15.5965 45.6875 22.5V27.572" stroke="black" stroke-width="3" stroke-linecap="round" stroke-linejoin="round"/>
</svg>
