<svg width="18" height="18" viewBox="0 0 18 18" fill="none" xmlns="http://www.w3.org/2000/svg">
<g clip-path="url(#clip0_1_208)">
<path d="M13.7812 0H4.21875C3.84579 0 3.4881 0.148158 3.22438 0.411881C2.96066 0.675604 2.8125 1.03329 2.8125 1.40625V16.5938C2.8125 16.9667 2.96066 17.3244 3.22438 17.5881C3.4881 17.8518 3.84579 18 4.21875 18H13.7812C14.1542 18 14.5119 17.8518 14.7756 17.5881C15.0393 17.3244 15.1875 16.9667 15.1875 16.5938V1.40625C15.1875 1.03329 15.0393 0.675604 14.7756 0.411881C14.5119 0.148158 14.1542 0 13.7812 0ZM13.7812 16.5938H4.21875V1.40625H13.7812V16.5938Z" fill="white"/>
<path d="M8.99998 15.1875C9.49703 15.1875 9.89998 14.8097 9.89998 14.3438C9.89998 13.8778 9.49703 13.5 8.99998 13.5C8.50292 13.5 8.09998 13.8778 8.09998 14.3438C8.09998 14.8097 8.50292 15.1875 8.99998 15.1875Z" fill="white"/>
</g>
<defs>
<clipPath id="clip0_1_208">
<rect width="18" height="18" fill="white"/>
</clipPath>
</defs>
</svg>
