<svg width="98" height="98" viewBox="0 0 98 98" fill="none" xmlns="http://www.w3.org/2000/svg">
<g clip-path="url(#clip0_1_211)">
<mask id="mask0_1_211" style="mask-type:luminance" maskUnits="userSpaceOnUse" x="0" y="0" width="98" height="98">
<path d="M98 0H0V98H98V0Z" fill="white"/>
</mask>
<g mask="url(#mask0_1_211)">
<path d="M45.7909 0.026376C45.5802 0.0455353 44.9093 0.112593 44.3058 0.160491C30.3867 1.41543 17.3488 8.92588 9.09109 20.4694C4.49285 26.8878 1.55191 34.1683 0.440665 41.8799C0.0478983 44.572 0 45.3671 0 49.0167C0 52.6668 0.0478983 53.4619 0.440665 56.1536C3.10381 74.5564 16.1992 90.0179 33.9599 95.7464C37.1404 96.7713 40.4933 97.4708 44.3058 97.8922C45.7909 98.0551 52.2091 98.0551 53.6942 97.8922C60.2753 97.1641 65.8507 95.5357 71.3493 92.7288C72.1925 92.2976 72.355 92.1829 72.2403 92.0869C72.1635 92.0293 68.5714 87.211 64.2602 81.3865L56.4243 70.8009L46.6051 56.2687C41.2021 48.2793 36.7572 41.746 36.7189 41.746C36.6805 41.7362 36.6422 48.1931 36.6231 56.0768C36.5943 69.8813 36.5848 70.4371 36.4123 70.7625C36.1633 71.2321 35.9716 71.4236 35.5693 71.6343C35.2628 71.7879 34.9945 71.8164 33.548 71.8164H31.8907L31.45 71.5388C31.1627 71.3567 30.9519 71.117 30.8082 70.8393L30.607 70.4081L30.6262 51.2009L30.6549 31.9841L30.9519 31.6106C31.1052 31.4094 31.4309 31.1507 31.6608 31.0262C32.0536 30.8346 32.2068 30.8154 33.8641 30.8154C35.8184 30.8154 36.1441 30.892 36.6518 31.4477C36.7955 31.601 42.1122 39.6096 48.4733 49.2564C54.8339 58.9029 63.5322 72.0749 67.805 78.5413L75.5645 90.2956L75.9574 90.0371C79.4347 87.7761 83.1134 84.5573 86.0252 81.2044C92.2233 74.0868 96.218 65.4076 97.5594 56.1536C97.9522 53.4619 98 52.6668 98 49.0167C98 45.3671 97.9522 44.572 97.5594 41.8799C94.8963 23.4774 81.8006 8.01583 64.0401 2.28718C60.9074 1.27173 57.5738 0.572418 53.8379 0.150912C52.918 0.0551152 46.5859 -0.0502614 45.7909 0.026376ZM65.8507 29.6659C66.3105 29.8958 66.6841 30.3364 66.818 30.7963C66.8948 31.0453 66.914 36.3716 66.8948 48.3748L66.8662 65.5992L63.8294 60.9433L60.7829 56.2879V43.7672C60.7829 35.6723 60.8213 31.122 60.8788 30.9016C61.032 30.3652 61.3672 29.9437 61.827 29.6946C62.2198 29.4934 62.3635 29.4743 63.8678 29.4743C65.2856 29.4743 65.5346 29.4934 65.8507 29.6659Z" fill="white"/>
</g>
</g>
<defs>
<clipPath id="clip0_1_211">
<rect width="98" height="98" fill="white"/>
</clipPath>
</defs>
</svg>
