<svg width="70" height="70" viewBox="0 0 70 70" fill="none" xmlns="http://www.w3.org/2000/svg">
<path d="M57.9469 65.625H12.0313C11.018 65.6585 10.0088 65.4814 9.06743 65.1049C8.12611 64.7284 7.27315 64.1606 6.56251 63.4375C5.84492 62.7319 5.28035 61.8861 4.904 60.9527C4.52765 60.0194 4.34758 59.0185 4.37501 58.0125V12.0313C4.3415 11.018 4.5186 10.0088 4.89513 9.06743C5.27166 8.12611 5.83942 7.27315 6.56251 6.56251C7.27315 5.83942 8.12611 5.27166 9.06743 4.89513C10.0088 4.5186 11.018 4.3415 12.0313 4.37501H57.9688C58.982 4.3415 59.9913 4.5186 60.9326 4.89513C61.8739 5.27166 62.7269 5.83942 63.4375 6.56251C64.1606 7.27315 64.7284 8.12611 65.1049 9.06743C65.4814 10.0088 65.6585 11.018 65.625 12.0313V57.9688C65.6135 59.9996 64.8001 61.9436 63.3621 63.3775C61.924 64.8115 59.9777 65.6193 57.9469 65.625ZM45.7844 53.2219C47.3816 53.2011 48.9243 52.638 50.1594 51.625C51.0438 51.0759 51.79 50.3306 52.3401 49.4467C52.8901 48.5628 53.2293 47.5642 53.3313 46.5281C53.2406 45.834 52.9847 45.1717 52.585 44.5969C52.1854 44.0221 51.6536 43.5517 51.0344 43.225C49.6852 42.1895 48.2674 41.2467 46.7906 40.4031C45.935 39.5943 44.8168 39.1207 43.6406 39.0688H42.6781C42.0948 39.0688 41.3656 39.7979 40.4906 41.2563C40.258 41.6243 39.9346 41.9263 39.5515 42.1331C39.1684 42.34 38.7385 42.4448 38.3031 42.4375C37.728 42.4203 37.1624 42.2864 36.6406 42.0438C32.6029 40.4334 29.3693 37.2863 27.65 33.2938C27.2971 32.6723 27.1018 31.9738 27.0813 31.2594C27.0991 30.9295 27.1356 30.6008 27.1906 30.275C27.1906 29.7938 27.7375 29.2906 28.6781 28.7219C29.2226 28.3681 29.7095 27.9328 30.1219 27.4313C30.5499 26.8678 30.7597 26.1685 30.7125 25.4625C30.4231 24.3899 29.9494 23.3759 29.3125 22.4656C26.6 18.3094 24.4125 16.2313 22.75 16.2313C22.332 16.2313 21.9172 16.3054 21.525 16.45C18.0688 17.6531 16.3844 19.6875 16.3844 22.6625C16.3997 23.698 16.6074 24.7217 16.9969 25.6813C19.4394 31.7831 23.0951 37.3256 27.7426 41.9731C32.3901 46.6205 37.9326 50.2762 44.0344 52.7188C44.5571 53.0516 45.1648 53.2263 45.7844 53.2219ZM51.9313 35C52.4854 35 52.7917 34.825 52.85 34.475C52.885 34.287 52.885 34.0942 52.85 33.9063C52.8578 33.7532 52.8578 33.5999 52.85 33.4469C52.825 33.2362 52.825 33.0232 52.85 32.8125C52.8759 29.9376 52.1198 27.1096 50.6625 24.6313C49.2225 22.1341 47.2046 20.0186 44.7781 18.4625C42.3282 16.8455 39.4857 15.9232 36.5531 15.7938H36.1156H35.4375C34.8031 15.7938 34.4969 16.1656 34.4969 16.8875C34.4784 17.0203 34.4997 17.1556 34.5581 17.2763C34.6165 17.397 34.7094 17.4977 34.825 17.5656C35.0576 17.6795 35.3103 17.7464 35.5688 17.7625C35.8035 17.7617 36.0353 17.814 36.2469 17.9156C40.1376 18.2332 43.8104 19.8424 46.6813 22.4875C49.2283 25.4361 50.7618 29.1242 51.0563 33.0094L50.9469 33.775C50.9563 34.0622 50.9929 34.3478 51.0563 34.6281C51.1656 34.7813 51.4281 35 51.9313 35ZM47.5563 33.25C47.7967 33.1749 48.003 33.0176 48.139 32.8056C48.275 32.5936 48.332 32.3405 48.3 32.0906V31.6969C48.2821 31.5736 48.2821 31.4483 48.3 31.325C48.338 28.6255 47.3172 26.0184 45.4563 24.0625C43.5413 21.9859 40.9831 20.6144 38.1938 20.1688C37.8009 20.0665 37.3966 20.015 36.9906 20.0156H36.4C36.1156 20.0156 35.9406 20.475 35.875 21.2188C35.8094 21.9625 36.3563 22.05 37.3188 22.05C39.7534 22.3817 42.0361 23.4242 43.8813 25.0469C45.3536 26.7836 46.2616 28.9278 46.4844 31.1938V31.85C46.4819 32.1414 46.5338 32.4308 46.6375 32.7031C46.7031 33.0531 47.0313 33.1844 47.6219 33.1844L47.5563 33.25ZM43.1813 31.8063C43.6406 31.8063 43.925 31.5656 43.9906 31.2594C44.0756 30.953 44.1198 30.6367 44.1219 30.3188C44.0925 29.6072 43.9228 28.9085 43.6225 28.2628C43.3221 27.6171 42.8971 27.0371 42.3719 26.5563C41.9097 26.0165 41.3406 25.5784 40.7005 25.2696C40.0604 24.9609 39.3633 24.7882 38.6531 24.7625H37.8438C37.6171 24.8053 37.4157 24.9337 37.2813 25.121C37.1468 25.3084 37.0898 25.5404 37.1219 25.7688C37.1219 26.25 37.4938 26.5563 38.2156 26.7094C39.264 26.7549 40.252 27.2125 40.9648 27.9826C41.6776 28.7527 42.0575 29.7731 42.0219 30.8219C42.0696 31.0902 42.2138 31.3318 42.4274 31.501C42.641 31.6703 42.9091 31.7555 43.1813 31.7406V31.8063Z" fill="white"/>
</svg>
