<svg width="134" height="134" viewBox="0 0 134 134" fill="none" xmlns="http://www.w3.org/2000/svg">
<path d="M67 75.3751C64.7788 75.3751 62.6486 74.4927 61.078 72.9221C59.5074 71.3515 58.625 69.2213 58.625 67.0001C58.625 64.7789 59.5074 62.6487 61.078 61.0781C62.6486 59.5075 64.7788 58.6251 67 58.6251C69.2212 58.6251 71.3514 59.5075 72.922 61.0781C74.4926 62.6487 75.375 64.7789 75.375 67.0001C75.375 69.2213 74.4926 71.3515 72.922 72.9221C71.3514 74.4927 69.2212 75.3751 67 75.3751ZM64.052 92.0916C65.0291 93.2641 66.0118 94.4031 67 95.4918C67.9883 94.4031 68.9709 93.2697 69.948 92.0916C67.9829 92.1333 66.0171 92.1333 64.052 92.0916ZM52.9133 91.3937C48.6256 90.9475 44.3663 90.2615 40.1553 89.339C39.7366 91.2932 39.4183 93.1915 39.2062 95.0117C38.1453 103.85 39.6249 109.221 41.875 110.517C44.1251 111.818 49.513 110.41 56.6429 105.078C58.1113 103.979 59.5909 102.756 61.0761 101.421C58.17 98.2339 55.4447 94.8861 52.9133 91.3937ZM93.8447 89.339C89.8414 90.2323 85.5646 90.9247 81.0868 91.3937C78.5553 94.8861 75.83 98.2339 72.9239 101.421C74.4091 102.761 75.8887 103.979 77.3571 105.078C84.487 110.41 89.8749 111.818 92.125 110.517C94.3751 109.221 95.8491 103.85 94.7994 95.0117C94.569 93.1074 94.2467 91.2146 93.8447 89.339ZM101.94 87.1783C105.162 101.913 103.47 113.643 96.3125 117.775C89.1547 121.907 78.1499 117.507 67 107.351C55.8501 117.507 44.8453 121.901 37.6875 117.769C30.5297 113.638 28.8379 101.913 32.0539 87.1727C17.6824 82.5999 8.375 75.2634 8.375 67.0001C8.375 58.7368 17.6824 51.4058 32.0539 46.8219C28.8379 32.0875 30.5297 20.3569 37.6875 16.2252C44.8453 12.0936 55.8501 16.4932 67 26.6493C78.1499 16.4932 89.1547 12.0992 96.3125 16.2308C103.47 20.3625 105.162 32.0875 101.946 46.8275C116.318 51.4002 125.625 58.7368 125.625 67.0001C125.625 75.2634 116.318 82.5943 101.946 87.1783H101.94ZM61.0705 32.5788C59.6506 31.2936 58.1732 30.0733 56.6429 28.9217C49.513 23.5897 44.1251 22.1827 41.875 23.4836C39.6249 24.7789 38.1509 30.1501 39.2006 38.9885C39.4239 40.8142 39.7366 42.707 40.1498 44.6612C44.3625 43.7384 48.6237 43.0525 52.9133 42.6065C55.5653 38.9606 58.3012 35.605 61.0761 32.5788H61.0705ZM81.0868 42.6065C85.5646 43.0755 89.8414 43.7734 93.8447 44.6612C94.2634 42.707 94.5817 40.8087 94.7938 38.9885C95.8547 30.1501 94.3751 24.7789 92.125 23.4836C89.8749 22.1827 84.487 23.5897 77.3571 28.9217C75.8249 30.0732 74.3456 31.2935 72.9239 32.5788C75.6988 35.605 78.4347 38.9606 81.0868 42.6065ZM69.948 41.9086C68.9709 40.7361 67.9883 39.5971 67 38.5083C66.0118 39.5971 65.0291 40.7305 64.052 41.9086C66.0171 41.8669 67.9829 41.8669 69.948 41.9086ZM46.7437 82.0974C45.725 80.4174 44.7421 78.716 43.7957 76.9943C43.2653 78.4292 42.7739 79.8418 42.3273 81.2432C43.7622 81.5558 45.2417 81.8406 46.7437 82.0974ZM57.5307 83.4039C63.8349 83.8722 70.1651 83.8722 76.4693 83.4039C80.0271 78.1776 83.1922 72.6947 85.9387 67.0001C83.1922 61.3055 80.0271 55.8225 76.4693 50.5963C70.1651 50.128 63.8349 50.128 57.5307 50.5963C53.9729 55.8225 50.8078 61.3055 48.0613 67.0001C50.8078 72.6947 53.9729 78.1776 57.5307 83.4039ZM90.2043 57.0059C90.7348 55.571 91.2261 54.1584 91.6728 52.757C90.209 52.4394 88.7384 52.1545 87.2619 51.9027C88.2787 53.5828 89.2597 55.2843 90.2043 57.0059ZM34.2258 54.9233C32.3275 55.5375 30.5297 56.2075 28.8435 56.9333C20.6639 60.4397 16.75 64.4038 16.75 67.0001C16.75 69.5963 20.6583 73.5605 28.8435 77.0668C30.5297 77.7927 32.3275 78.4627 34.2258 79.0768C35.4653 75.1685 37.0007 71.115 38.8321 67.0001C37.0724 63.0637 35.5345 59.0318 34.2258 54.9233ZM42.3217 52.757C42.7739 54.1528 43.2653 55.571 43.7957 57.0003C44.7422 55.2805 45.7251 53.5809 46.7437 51.9027C45.2362 52.1596 43.7566 52.4443 42.3217 52.757ZM99.7742 79.0768C101.673 78.4627 103.47 77.7927 105.157 77.0668C113.336 73.5605 117.25 69.5963 117.25 67.0001C117.25 64.4038 113.342 60.4397 105.157 56.9333C103.394 56.1824 101.598 55.5117 99.7742 54.9233C98.5347 58.8317 96.9993 62.8852 95.1679 67.0001C96.9993 71.115 98.5347 75.1629 99.7742 79.0768ZM91.6783 81.2432C91.2261 79.8473 90.7348 78.4292 90.2043 76.9998C89.2578 78.7197 88.2749 80.4192 87.2563 82.0974C88.7638 81.8406 90.2434 81.5558 91.6783 81.2432Z" fill="white"/>
</svg>
