<svg width="108" height="108" viewBox="0 0 108 108" fill="none" xmlns="http://www.w3.org/2000/svg">
<g clip-path="url(#clip0_1_217)">
<path d="M54.0004 18C46.6135 18 40.2626 19.9938 35.2776 24.2667C30.3284 28.5088 27.0907 34.6845 25.2946 42.3819C24.9026 44.0618 25.7574 45.7837 27.3326 46.4871C28.9077 47.1905 30.7604 46.6776 31.7496 45.2644C34.0294 42.0077 36.3056 40.0508 38.4926 39.0465C40.6107 38.074 42.8939 37.8769 45.509 38.5774C48.1481 39.2843 50.191 41.3546 53.3983 44.8428L53.5019 44.9555C55.9196 47.5852 58.8689 50.7931 62.9027 53.282C67.0885 55.8647 72.2974 57.5999 79.2007 57.5999C86.5872 57.5999 92.9383 55.6061 97.9236 51.3333C102.872 47.0911 106.11 40.9154 107.906 33.218C108.298 31.5381 107.443 29.8162 105.868 29.1128C104.293 28.4095 102.44 28.9223 101.451 30.3355C99.1714 33.5922 96.8954 35.5491 94.7081 36.5534C92.5898 37.526 90.3067 37.723 87.6917 37.0225C85.0529 36.3156 83.0095 34.2454 79.8026 30.7571L79.699 30.6444C77.2812 28.0147 74.3321 24.8067 70.2981 22.3179C66.1124 19.7353 60.9036 18 54.0004 18Z" fill="white"/>
<path d="M28.8004 50.3999C21.4135 50.3999 15.0626 52.3937 10.0776 56.6666C5.12835 60.9087 1.89066 67.0843 0.0945829 74.7821C-0.297401 76.4618 0.557397 78.1833 2.13254 78.8868C3.70768 79.5902 5.56039 79.0776 6.54965 77.6642C8.82936 74.4077 11.1056 72.4507 13.2926 71.4464C15.4107 70.4739 17.6938 70.2768 20.309 70.9773C22.9481 71.6842 24.991 73.7546 28.1983 77.243L28.3019 77.3553C30.7195 79.9848 33.6689 83.1931 37.7027 85.6821C41.8885 88.2648 47.0972 90 54.0004 90C61.3873 90 67.7382 88.0063 72.7236 83.7331C77.6722 79.4909 80.91 73.3154 82.7064 65.6179C83.0981 63.9379 82.2434 62.2161 80.6681 61.5127C79.0934 60.8093 77.2402 61.3222 76.2509 62.7354C73.9714 65.9922 71.6953 67.949 69.5082 68.9532C67.3901 69.9258 65.107 70.1229 62.4918 69.4224C59.8528 68.7155 57.8099 66.6452 54.6026 63.157L54.4989 63.0443C52.0813 60.4146 49.1319 57.2066 45.0981 54.7177C40.9123 52.1352 35.7036 50.3999 28.8004 50.3999Z" fill="white"/>
</g>
<defs>
<clipPath id="clip0_1_217">
<rect width="108" height="108" fill="white"/>
</clipPath>
</defs>
</svg>
