<svg width="108" height="108" viewBox="0 0 108 108" fill="none" xmlns="http://www.w3.org/2000/svg">
<g clip-path="url(#clip0_1_226)">
<path d="M0 11.8125C0 5.28863 5.28864 0 11.8125 0H96.1875C102.711 0 108 5.28864 108 11.8125V25.3125C108 28.1084 105.733 30.375 102.938 30.375C100.142 30.375 97.875 28.1084 97.875 25.3125V11.8125C97.875 10.8805 97.1197 10.125 96.1875 10.125H11.8125C10.8805 10.125 10.125 10.8805 10.125 11.8125V96.1875C10.125 97.1197 10.8805 97.875 11.8125 97.875H102.938C105.733 97.875 108 100.142 108 102.938C108 105.733 105.733 108 102.938 108H11.8125C5.28863 108 0 102.711 0 96.1875V11.8125ZM32.0625 43.875C32.0625 41.0791 34.3291 38.8125 37.125 38.8125H62.4375C65.2334 38.8125 67.5 41.0791 67.5 43.875C67.5 46.6709 65.2334 48.9375 62.4375 48.9375H55.6875V84.375C55.6875 87.1709 53.4209 89.4375 50.625 89.4375C47.8291 89.4375 45.5625 87.1709 45.5625 84.375V48.9375H37.125C34.3291 48.9375 32.0625 46.6709 32.0625 43.875ZM76.111 44.4157C78.9372 41.0511 83.3672 38.8125 89.4375 38.8125C95.0731 38.8125 99.3249 40.7408 102.191 43.7725C104.111 45.8044 104.021 49.0085 101.989 50.9291C99.9574 52.8497 96.7532 52.7594 94.8328 50.7275C94.091 49.9431 92.6127 48.9375 89.4375 48.9375C86.0578 48.9375 84.5816 50.0739 83.864 50.928C82.9805 51.9794 82.6875 53.298 82.6875 54C82.6875 54.702 82.9805 56.0206 83.864 57.072C84.5816 57.9261 86.0578 59.0625 89.4375 59.0625C89.9485 59.0625 90.4419 59.1382 90.9063 59.279C95.3822 59.9161 98.7653 61.9144 101.077 64.6657C103.737 67.8328 104.625 71.577 104.625 74.25C104.625 76.923 103.737 80.6672 101.077 83.8343C98.2503 87.1992 93.8203 89.4375 87.75 89.4375C82.1144 89.4375 77.8626 87.509 74.9966 84.4776C73.0762 82.4458 73.1666 79.2416 75.1984 77.3206C77.2301 75.4002 80.4343 75.4907 82.3547 77.5224C83.0965 78.3068 84.5748 79.3125 87.75 79.3125C91.1297 79.3125 92.6059 78.1758 93.3235 77.3219C94.207 76.2703 94.5 74.952 94.5 74.25C94.5 73.548 94.207 72.2297 93.3235 71.1781C92.6059 70.3242 91.1297 69.1875 87.75 69.1875C87.239 69.1875 86.7456 69.1119 86.2812 68.9708C81.8053 68.3336 78.4222 66.3356 76.111 63.5843C73.4508 60.4169 72.5625 56.673 72.5625 54C72.5625 51.327 73.4508 47.5831 76.111 44.4157Z" fill="white"/>
</g>
<defs>
<clipPath id="clip0_1_226">
<rect width="108" height="108" fill="white"/>
</clipPath>
</defs>
</svg>
